<mxfile host="app.diagrams.net" modified="2024-03-14T03:00:55.399Z" agent="Mozilla/5.0 (Windows NT 10.0; Win64; x64) AppleWebKit/537.36 (KHTML, like Gecko) Chrome/121.0.0.0 Safari/537.36 OPR/107.0.0.0" version="24.0.5" etag="MG76v-6PAXtErI3coXOk" type="github">
  <diagram name="Page-1" id="gwe6SuvXD2faLdQkWLRu">
    <mxGraphModel>
      <root>
        <mxCell id="0" />
        <mxCell id="1" parent="0" />
      </root>
    </mxGraphModel>
  </diagram>
</mxfile>
